Coordinates
version=1
nRows=14
nColumns=42
inDegrees=yes

Units are S.I. units (second, meters, Newtons, ...)
If the header above contains a line with 'inDegrees', this indicates whether rotational values are in degrees (yes) or radians (no).

endheader
time	pelvis_tilt	pelvis_list	pelvis_rotation	pelvis_tx	pelvis_ty	pelvis_tz	hip_flexion_r	hip_adduction_r	hip_rotation_r	knee_angle_r	knee_adduction_r	knee_angle_r_beta	ankle_angle_r	subtalar_angle_r	mtp_angle_r	hip_flexion_l	hip_adduction_l	hip_rotation_l	knee_angle_l	knee_adduction_l	knee_angle_l_beta	ankle_angle_l	subtalar_angle_l	mtp_angle_l	lumbar_extension	lumbar_bending	lumbar_rotation	arm_flex_r	arm_add_r	arm_rot_r	elbow_flex_r	pro_sup_r	wrist_flex_r	wrist_dev_r	arm_flex_l	arm_add_l	arm_rot_l	elbow_flex_l	pro_sup_l	wrist_flex_l	wrist_dev_l
      6.00000000	      7.87831112	     -4.06792770	     -5.60109896	      0.51208578	      0.95209669	     -0.15211809	      5.80681953	     -9.71579464	    -15.82015219	     37.98885796	      4.95891649	      0.66303065	      6.15682226	      4.05718853	     -7.50313585	     -2.73775872	     -3.32993188	    -21.69940010	     23.08388028	      2.77907261	      0.40288971	     17.14188954	      2.49810861	     -7.50313585	    -17.96900627	      1.17410195	     -0.31419797	      6.93115683	     -7.38636002	      1.09730753	     37.09825445	     90.00000001	      0.00000000	      0.00000000	    -14.04553008	    -10.89692146	     -2.82591619	     48.70136283	     90.00000001	      0.00000000	      0.00000000
      6.01000000	      7.87803337	     -4.19680862	     -5.67717585	      0.51338522	      0.95216040	     -0.15193921	      6.01794266	     -9.50548144	    -15.87426355	     36.72283809	      5.21503820	      0.64093444	      6.36712091	      4.93164955	     -7.50308681	     -2.87732491	     -3.48406903	    -21.63484205	     23.07578933	      2.90227499	      0.40274850	     17.22800269	      2.24168419	     -7.50308681	    -18.04387621	      1.24620989	     -0.19680142	      6.95202749	     -7.39380623	      0.81296599	     36.82794998	     90.00000001	      0.00000000	      0.00000000	    -14.00549232	    -10.82818778	     -2.83275985	     48.59394291	     90.00000001	      0.00000000	      0.00000000
      6.02000000	      7.87368607	     -4.29613913	     -5.74333955	      0.51463310	      0.95218155	     -0.15165672	      6.26112803	     -9.30999256	    -16.07586912	     35.48494003	      5.36058639	      0.61932904	      6.54009587	      6.03588303	     -7.50301884	     -2.99499664	     -3.60650698	    -21.51903616	     23.08211678	      3.00855849	      0.40285894	     17.29034952	      1.96399952	     -7.50301884	    -18.12122081	      1.27802207	     -0.09798506	      6.96220194	     -7.33620799	      0.49694432	     36.61104173	     90.00000001	      0.00000000	      0.00000000	    -13.94529598	    -10.77713841	     -2.84943121	     48.49537190	     90.00000001	      0.00000000	      0.00000000
      6.03000000	      7.73984518	     -4.28745463	     -5.83043375	      0.51580164	      0.95190943	     -0.15137504	      6.74052508	     -9.24849216	    -16.15969514	     34.40210930	      5.61502603	      0.60043008	      6.59801624	      6.72999611	     -7.50298409	     -2.93047263	     -3.56142856	    -21.47276024	     23.06446230	      2.96354465	      0.40255081	     17.37327894	      1.82866937	     -7.50298409	    -18.05372879	      1.20070698	     -0.01630329	      6.91858266	     -7.34368515	      0.38869506	     36.49299942	     90.00000001	      0.00000000	      0.00000000	    -13.94360873	    -10.78270423	     -2.85756142	     48.47025295	     90.00000001	      0.00000000	      0.00000000
      6.04000000	      7.66973303	     -4.34278086	     -5.93009123	      0.51697196	      0.95177009	     -0.15114475	      7.07273462	     -9.10260676	    -16.23068122	     33.16907242	      5.86712287	      0.57890952	      6.64998558	      7.86012157	     -7.50293900	     -2.91973302	     -3.61682735	    -21.38167584	     23.14927959	      2.99150976	      0.40403115	     17.46022391	      1.61261986	     -7.50293900	    -18.06342612	      1.20938339	      0.06344488	      6.93544188	     -7.34881196	      0.20783906	     36.34286589	     90.00000001	      0.00000000	      0.00000000	    -13.87908073	    -10.69485428	     -2.84519087	     48.36114414	     90.00000001	      0.00000000	      0.00000000
      6.05000000	      7.56959494	     -4.35817427	     -6.01142079	      0.51814652	      0.95152647	     -0.15083287	      7.45951200	     -8.98956275	    -16.40832911	     31.98914727	      6.07200397	      0.55831594	      6.64893426	      8.97495053	     -7.50289889	     -2.87591676	     -3.63535570	    -21.31648106	     23.20755299	      3.00444536	      0.40504821	     17.55094340	      1.42749503	     -7.50289889	    -18.03967120	      1.16762242	      0.13706762	      6.92136985	     -7.34847136	      0.05516864	     36.23040650	     90.00000001	      0.00000000	      0.00000000	    -13.82553567	    -10.64432244	     -2.84709760	     48.27045624	     90.00000001	      0.00000000	      0.00000000
      6.06000000	      7.57009436	     -4.43041921	     -6.01072892	      0.51944261	      0.95143452	     -0.15059576	      7.71166058	     -8.79681929	    -17.16801290	     30.84498170	      5.91937469	      0.53834649	      6.77549009	     11.06893988	     -7.50279279	     -2.96682593	     -3.74513883	    -21.17815704	     23.26134418	      3.11608400	      0.40598704	     17.61766949	      1.15450172	     -7.50279279	    -18.12624744	      1.20470900	      0.17172902	      6.93056788	     -7.35691516	     -0.26315378	     36.12086709	     90.00000001	      0.00000000	      0.00000000	    -13.73450942	    -10.60342256	     -2.87843447	     48.14184998	     90.00000001	      0.00000000	      0.00000000
      6.07000000	      7.44280707	     -4.29821907	     -6.15242262	      0.52077596	      0.95097851	     -0.15023990	      8.26495369	     -8.90880348	    -17.39746875	     30.03898159	      6.19851733	      0.52427913	      6.73565315	     11.38258375	     -7.50278379	     -2.93943269	     -3.61395040	    -21.28234012	     23.24351778	      3.16647875	      0.40567592	     17.73046052	      1.08787349	     -7.50278379	    -18.02977721	      1.00853390	      0.25547035	      6.85861656	     -7.38699172	     -0.25783614	     36.03708321	     90.00000001	      0.00000000	      0.00000000	    -13.73068133	    -10.58048705	     -2.87321455	     48.13164630	     90.00000001	      0.00000000	      0.00000000
      6.08000000	      7.27221103	     -4.30253744	     -6.24077135	      0.52179576	      0.95058420	     -0.14993099	      8.65117444	     -8.82022350	    -17.39499821	     28.78981261	      6.64185344	      0.50247702	      6.40562309	     12.77254119	     -7.50274978	     -2.71274436	     -3.59864247	    -21.18299629	     23.45472909	      3.05047204	      0.40936225	     17.85551568	      0.91745375	     -7.50274978	    -17.95815248	      0.98976693	      0.30595281	      6.89842176	     -7.41900618	     -0.32218432	     35.98743042	     90.00000001	      0.00000000	      0.00000000	    -13.64229025	    -10.51730615	     -2.84471023	     47.95274404	     90.00000001	      0.00000000	      0.00000000
      6.09000000	      7.17185741	     -4.29551742	     -6.29444065	      0.52305959	      0.95020234	     -0.14959742	      9.01689105	     -8.72974100	    -17.76700503	     27.78956763	      6.82958344	      0.48501945	      6.14176666	     14.01458263	     -7.50271987	     -2.63142368	     -3.61462208	    -21.14582253	     23.59681270	      3.05287692	      0.41184207	     17.97304863	      0.77994801	     -7.50271987	    -17.92206017	      0.95227270	      0.34236893	      6.88428341	     -7.46668207	     -0.40686517	     35.94943708	     90.00000001	      0.00000000	      0.00000000	    -13.55402188	    -10.47574001	     -2.84152552	     47.80683743	     90.00000001	      0.00000000	      0.00000000
      6.10000000	      7.15728994	     -4.24001084	     -6.45646294	      0.52421715	      0.94983235	     -0.14906270	      9.53441912	     -8.73811618	    -18.11062170	     27.40809026	      7.03938550	      0.47836142	      6.14360202	     14.11236095	     -7.50271383	     -2.71715762	     -3.56524662	    -21.19609420	     23.61430311	      3.10415379	      0.41214734	     18.02249852	      0.76174905	     -7.50271383	    -18.00766839	      0.83701092	      0.41133386	      6.96612624	     -7.49125150	     -0.40713460	     35.96959999	     90.00000001	      0.00000000	      0.00000000	    -13.52361777	    -10.45260668	     -2.83368199	     47.80449185	     90.00000001	      0.00000000	      0.00000000
      6.11000000	      6.93119986	     -4.11408011	     -6.46408671	      0.52557921	      0.94927455	     -0.14882602	      9.85797712	     -8.73913208	    -18.41945033	     26.11953494	      7.30666575	      0.45587188	      5.46082526	     15.63411605	     -7.50269441	     -2.42304499	     -3.44183561	    -21.09439313	     23.83790374	      3.02876668	      0.41604991	     18.20818718	      0.62601361	     -7.50269441	    -17.80043475	      0.70864644	      0.43391544	      6.85178485	     -7.53486734	     -0.46773955	     35.91672844	     90.00000001	      0.00000000	      0.00000000	    -13.39335707	    -10.41190413	     -2.81884346	     47.61297663	     90.00000001	      0.00000000	      0.00000000
      6.12000000	      6.91325246	     -4.15695193	     -6.43758008	      0.52709782	      0.94895850	     -0.14854043	     10.05222299	     -8.62610410	    -19.29739249	     25.36811033	      7.39133919	      0.44275705	      4.93767589	     17.24658958	     -7.50266706	     -2.43430469	     -3.54895935	    -21.05902611	     24.04605086	      3.07113058	      0.41968276	     18.38749029	      0.46745080	     -7.50266706	    -17.83656279	      0.76419773	      0.42498080	      6.84707045	     -7.59352838	     -0.56676022	     35.89839172	     90.00000001	      0.00000000	      0.00000000	    -13.24974780	    -10.34589592	     -2.79655160	     47.36098819	     90.00000001	      0.00000000	      0.00000000
      6.13000000	      6.89055169	     -4.07928349	     -6.53513364	      0.52864565	      0.94853454	     -0.14798560	     10.41951180	     -8.61877386	    -19.76217854	     25.03208274	      7.55129850	      0.43689226	      4.91072569	     17.42327572	     -7.50266443	     -2.55476423	     -3.51184617	    -21.17317246	     24.00731592	      3.14924825	      0.41900671	     18.47816379	      0.41934861	     -7.50266443	    -17.85843364	      0.64703087	      0.49251203	      6.83552964	     -7.62914056	     -0.57094728	     35.84620653	     90.00000001	      0.00000000	      0.00000000	    -13.20514729	    -10.31338254	     -2.79203319	     47.34589231	     90.00000001	      0.00000000	      0.00000000
